:SAMPLES-PER-SECOND 30
:FULLY-SPECIFIED
:DEGREES
1365
root  43.814 36.0715 4.94154 174.349 63.2545 173.532
RightUpLeg  -26.0886 -4.01422 -2.78357
RightLeg  46.9901 6.96353 7.60781
RightFoot  -17.8049 -0.369701 -4.46332
RightToes  2.32829e-010 0 -3.6325e-017
Spine  44.8225 -4.78635 7.60536
Spine1  6.24443 -0.269751 -5.11026
HEad  -41.2658 9.3377 -26.8308
LeftShoulder1  2.77425 -5.82626 -23.5161
LeftArm  -11.8063 -22.7155 -40.2235
LeftForeArm  4.38921 -53.3936 -14.8768
LeftHand  -0.0613895 0.0138571 1.33459
RightShoulder  0.519827 -1.59467 21.1525
RightArm  -13.3606 25.9081 38.8663
RightForeArm  -2.01532 63.8385 24.1892
RightHand  -0.356965 4.05162 -4.65803
LeftUpLeg  -28.0682 3.64395 1.63693
LeftLeg  -0.270725 4.54136 -1.22119
LeftFoot  0.888791 1.41483 -13.2636
LeftToes  -3.54706e-010 1.16038e-010 5.28031e-012
1366
root  43.5272 36.4999 5.58874 174.975 58.4709 174.777
RightUpLeg  -24.0943 -9.02545 -2.07206
RightLeg  43.4427 7.21321 6.98025
RightFoot  -15.8538 -0.313404 -5.20681
RightToes  2.32829e-010 0 -3.6325e-017
Spine  42.9011 -4.91991 8.11768
Spine1  5.8903 -1.04273 -3.24578
HEad  -42.3809 11.0917 -27.4106
LeftShoulder1  2.57967 -4.74691 -25.0842
LeftArm  -10.4781 -18.5578 -39.4656
LeftForeArm  5.44585 -55.1234 -15.8337
LeftHand  -0.0669515 -0.13999 1.43611
RightShoulder  0.433456 -1.96063 22.2015
RightArm  -11.5115 20.8937 39.8706
RightForeArm  2.39303 66.7567 27.8083
RightHand  -0.344159 4.07914 -4.48805
LeftUpLeg  -25.3044 3.66607 1.41108
LeftLeg  -1.68813 12.3486 -1.45936
LeftFoot  1.2753 1.55882 -14.1196
LeftToes  -3.54706e-010 1.16038e-010 5.28031e-012
1367
root  43.2591 36.9422 6.23541 175.501 53.6837 176.06
RightUpLeg  -21.8616 -12.5308 -1.32144
RightLeg  39.3459 6.4804 5.40457
RightFoot  -13.8415 -0.204646 -5.08371
RightToes  2.32829e-010 0 -3.6325e-017
Spine  40.8771 -4.72003 9.22394
Spine1  5.55223 -0.998117 -2.22502
HEad  -40.69 10.3775 -26.008
LeftShoulder1  2.43976 -4.1071 -25.9236
LeftArm  -8.80543 -15.0065 -39.4653
LeftForeArm  7.30612 -56.6209 -16.664
LeftHand  -0.0564484 -0.345879 1.18939
RightShoulder  0.291731 -2.48922 23.2188
RightArm  -10.8361 14.5985 39.7969
RightForeArm  8.29539 69.9146 33.0174
RightHand  -0.316131 3.68161 -4.30034
LeftUpLeg  -23.8235 5.14812 1.58577
LeftLeg  1.82479 14.6121 -2.16841
LeftFoot  0.944832 1.46721 -13.6498
LeftToes  -3.54706e-010 1.16038e-010 5.28031e-012
1368
root  43.0067 37.4647 6.83913 175.132 48.5007 176.029
RightUpLeg  -19.5533 -15.531 -1.57087
RightLeg  34.7095 5.16629 3.59041
RightFoot  -11.494 -0.0848091 -4.68705
RightToes  2.32829e-010 0 -3.6325e-017
Spine  38.9786 -4.30442 9.14835
Spine1  4.93534 -1.10388 -1.20278
HEad  -35.8221 7.88525 -25.2246
LeftShoulder1  2.21336 -3.25289 -26.6349
LeftArm  -7.29437 -12.028 -38.9958
LeftForeArm  8.50399 -58.2482 -17.7255
LeftHand  -0.0579679 -0.332555 1.20657
RightShoulder  0.181018 -2.88746 24.3644
RightArm  -10.4421 8.39969 39.5217
RightForeArm  15.7465 72.7516 39.6123
RightHand  -0.273751 3.03363 -4.00101
LeftUpLeg  -22.8672 5.55004 0.639151
LeftLeg  6.17093 11.7663 -1.10128
LeftFoot  0.888265 1.02493 -9.58615
LeftToes  -3.54706e-010 1.16038e-010 5.28031e-012
1369
root  42.803 37.9461 7.32434 174.565 42.7454 175.837
RightUpLeg  -16.8919 -18.64 -2.41072
RightLeg  30.2132 3.45954 1.93443
RightFoot  -9.42247 0.00385875 -3.99316
RightToes  2.32829e-010 0 -3.6325e-017
Spine  36.7927 -4.04986 9.38677
Spine1  4.49035 -1.26138 -0.448951
HEad  -30.6348 4.76578 -24.8283
LeftShoulder1  2.06414 -2.72499 -27.0305
LeftArm  -5.84866 -9.72931 -38.3049
LeftForeArm  10.0181 -59.6135 -18.6642
LeftHand  -0.0251234 0.029796 0.553344
RightShoulder  0.107039 -3.13173 24.7216
RightArm  -10.4462 1.9919 39.7973
RightForeArm  23.0696 74.7322 46.2437
RightHand  -0.253774 2.86884 -3.7886
LeftUpLeg  -21.6457 7.4134 -1.02207
LeftLeg  11.0164 4.63112 -0.113051
LeftFoot  -0.294142 0.777256 -8.0161
LeftToes  -3.54706e-010 1.16038e-010 5.28031e-012
1370
root  42.6012 38.3472 7.67983 174.284 36.6939 176.273
RightUpLeg  -13.9059 -22.5973 -3.2242
RightLeg  26.0325 1.99594 0.777268
RightFoot  -7.57798 0.065671 -3.56191
RightToes  2.32829e-010 0 -3.6325e-017
Spine  34.6199 -3.88998 9.93116
Spine1  3.96483 -1.47813 0.724048
HEad  -24.8288 0.628488 -25.0188
LeftShoulder1  1.86168 -2.041 -27.4798
LeftArm  -4.1674 -7.60689 -37.5771
LeftForeArm  11.2789 -61.1067 -19.8479
LeftHand  -0.0534891 0.197417 1.17541
RightShoulder  0.0532905 -3.30552 24.7974
RightArm  -9.59335 -3.78445 39.3791
RightForeArm  28.6519 76.0239 52.5307
RightHand  -0.285685 3.07912 -4.1483
LeftUpLeg  -20.2815 9.76891 -1.67554
LeftLeg  16.3876 -1.04501 -0.00788871
LeftFoot  -1.50749 0.593906 -6.78762
LeftToes  -3.54706e-010 1.16038e-010 5.28031e-012
1371
root  42.3488 38.6577 7.97361 174.195 31.0569 176.485
RightUpLeg  -11.3449 -26.2501 -4.4839
RightLeg  22.2586 0.373474 0.332937
RightFoot  -5.93502 0.102904 -3.02442
RightToes  2.32829e-010 0 -3.6325e-017
Spine  32.0452 -3.52986 10.2886
Spine1  3.6038 -1.37224 1.28987
HEad  -18.7039 -3.78068 -26.1517
LeftShoulder1  1.67142 -1.40491 -27.9516
LeftArm  -2.92973 -5.91337 -36.3911
LeftForeArm  12.9851 -62.582 -21.0833
LeftHand  -1.66196e-005 0.176811 -0.0176991
RightShoulder  0.0504415 -3.31399 24.6128
RightArm  -8.49689 -8.73109 39.0145
RightForeArm  34.2577 76.9384 58.4487
RightHand  -0.32847 3.24388 -4.66928
LeftUpLeg  -18.5017 8.80428 -0.460505
LeftLeg  20.6453 -1.57542 -0.298967
LeftFoot  -2.6204 0.456376 -5.80035
LeftToes  -3.54706e-010 1.16038e-010 5.28031e-012
1372
root  42.016 38.8462 8.2072 174.47 25.8673 176.339
RightUpLeg  -9.71818 -24.8719 -6.7017
RightLeg  19.8132 -5.70347 0.401616
RightFoot  -4.54075 0.122302 -2.56973
RightToes  2.32829e-010 0 -3.6325e-017
Spine  29.1923 -3.06239 10.5502
Spine1  3.1539 -0.974094 0.970371
HEad  -12.3155 -7.29441 -28.2009
LeftShoulder1  1.53655 -1.02368 -27.8304
LeftArm  -1.82777 -4.68467 -35.3749
LeftForeArm  13.0512 -63.3337 -21.889
LeftHand  0.0175717 0.087267 -0.398193
RightShoulder  -0.0317019 -3.57715 24.9258
RightArm  -6.64073 -12.2982 38.3042
RightForeArm  38.6631 77.55 63.9645
RightHand  -0.448021 2.42081 -6.84573
LeftUpLeg  -16.8585 7.82866 0.772728
LeftLeg  23.4058 -0.157903 0.246771
LeftFoot  -3.58011 0.398994 -5.53632
LeftToes  -3.54706e-010 1.16038e-010 5.28031e-012
1373
root  41.6989 39.0167 8.33776 174.245 20.0937 176.88
RightUpLeg  -6.52397 -21.0958 -9.07287
RightLeg  17.2182 -14.6857 0.625988
RightFoot  -3.23596 0.11227 -1.90001
RightToes  2.32829e-010 0 -3.6325e-017
Spine  26.8517 -3.03701 10.7437
Spine1  3.08094 -1.02649 1.11267
HEad  -6.56033 -9.22283 -31.4834
LeftShoulder1  1.3747 -0.572504 -27.6281
LeftArm  -1.38764 -3.12918 -34.4253
LeftForeArm  13.8717 -64.4025 -23.0132
LeftHand  0.0224797 0.0700669 -0.511081
RightShoulder  -0.126291 -3.87434 25.57
RightArm  -4.4247 -14.3918 37.2611
RightForeArm  41.2815 77.7977 66.5083
RightHand  -0.413702 2.40053 -6.40474
LeftUpLeg  -13.9578 8.16504 2.81693
LeftLeg  24.8162 0.579395 0.620113
LeftFoot  -4.47023 0.250246 -3.7301
LeftToes  -3.54706e-010 1.16038e-010 5.28031e-012
1374
root  41.2537 39.0959 8.48824 175.062 15.2623 176.672
RightUpLeg  -6.02881 -19.2966 -10.6219
RightLeg  15.8095 -21.0554 0.284615
RightFoot  -2.20403 0.0324088 -0.59085
RightToes  2.32829e-010 0 -3.6325e-017
Spine  23.6522 -2.37752 9.97044
Spine1  3.09677 -0.777458 1.25841
HEad  -1.53806 -9.94509 -36.5921
LeftShoulder1  1.23735 -0.112656 -28.1041
LeftArm  -1.23006 -2.09851 -33.0737
LeftForeArm  15.0118 -65.2999 -23.9959
LeftHand  0.0412178 0.300014 -0.977422
RightShoulder  -0.112705 -3.83419 25.29
RightArm  -2.91443 -15.5508 37.0374
RightForeArm  42.815 77.9365 68.1952
RightHand  -0.390857 3.70478 -5.21648
LeftUpLeg  -12.3116 9.97162 4.11758
LeftLeg  24.5888 1.67848 1.16086
LeftFoot  -4.80005 0.187416 -2.78516
LeftToes  -3.54706e-010 1.16038e-010 5.28031e-012
1375
root  40.7847 39.1973 8.54332 175.426 9.9493 176.867
RightUpLeg  -4.26614 -18.7425 -12.2949
RightLeg  14.1066 -26.36 0.467856
RightFoot  -0.745663 -0.0213417 0.174834
RightToes  2.32829e-010 0 -3.6325e-017
Spine  20.8116 -2.27949 9.70397
Spine1  3.47216 -0.78393 0.704415
HEad  3.21433 -9.83783 -42.9201
LeftShoulder1  1.2216 -0.0972794 -27.8051
LeftArm  -1.22234 -0.87132 -32.164
LeftForeArm  15.2259 -66.3332 -25.3875
LeftHand  0.0166702 0.660818 -0.516439
RightShoulder  -0.162413 -3.98903 25.447
RightArm  -1.80072 -15.8761 36.69
RightForeArm  43.4725 78.0391 70.3251
RightHand  -0.47979 3.90723 -6.2599
LeftUpLeg  -9.78803 11.4437 5.92026
LeftLeg  22.7802 2.41663 1.44975
LeftFoot  -4.5894 0.154137 -2.14087
LeftToes  -3.54706e-010 1.16038e-010 5.28031e-012
1376
root  40.1985 39.2407 8.58464 175.804 4.73746 177.049
RightUpLeg  -2.68189 -18.9366 -13.9441
RightLeg  12.8558 -30.879 0.498937
RightFoot  0.643947 -0.0971794 0.970754
RightToes  2.32829e-010 0 -3.6325e-017
Spine  18.6858 -2.13157 9.06851
Spine1  3.16542 -0.859796 0.662398
HEad  6.94955 -7.67382 -49.5654
LeftShoulder1  1.09823 0.266942 -27.8263
LeftArm  -1.57866 0.336123 -32.0803
LeftForeArm  17.2669 -67.3831 -26.6893
LeftHand  0.0484313 0.741566 -1.32419
RightShoulder  -0.203548 -4.11661 25.5724
RightArm  -1.19051 -16.0441 36.2179
RightForeArm  46.5379 78.2355 72.9615
RightHand  -0.480601 3.35775 -6.619
LeftUpLeg  -7.79257 15.2493 7.67515
LeftLeg  20.9755 2.9855 1.57873
LeftFoot  -4.81434 0.0775495 -0.847237
LeftToes  -3.54706e-010 1.16038e-010 5.28031e-012
1377
root  39.5143 39.2852 8.5744 175.911 -0.504959 176.98
RightUpLeg  -0.325652 -19.6163 -16.1926
RightLeg  11.1468 -34.4532 1.08124
RightFoot  2.02787 -0.203785 1.84754
RightToes  2.32829e-010 0 -3.6325e-017
Spine  16.7569 -1.87646 7.60947
Spine1  3.38165 -1.06385 1.30931
HEad  8.24316 -3.99159 -53.6552
LeftShoulder1  0.96092 0.737222 -28.6239
LeftArm  -1.78654 0.816347 -31.9136
LeftForeArm  18.8118 -68.3231 -28.0389
LeftHand  0.0402738 0.745695 -1.10351
RightShoulder  -0.177523 -4.04429 24.993
RightArm  -1.53327 -16.2566 36.0572
RightForeArm  50.0844 78.4265 76.5203
RightHand  -0.44494 3.14209 -6.26102
LeftUpLeg  -5.60666 18.762 8.83628
LeftLeg  18.8794 7.68757 3.24045
LeftFoot  -4.93695 0.0199421 0.170207
LeftToes  -3.54706e-010 1.16038e-010 5.28031e-012
